<mxfile host="app.diagrams.net" modified="2024-03-21T13:55:48.434Z" agent="Mozilla/5.0 (Windows NT 10.0; Win64; x64) AppleWebKit/537.36 (KHTML, like Gecko) Chrome/121.0.0.0 Safari/537.36 OPR/107.0.0.0 (Edition std-1)" etag="8SIz4n5YNDzIZ8oC3S1t" version="24.0.7" type="device">
  <diagram name="Página-1" id="rOjRQy3jVm6m9A-RkvD4">
    <mxGraphModel dx="1914" dy="1048" grid="1" gridSize="10" guides="1" tooltips="1" connect="1" arrows="1" fold="1" page="1" pageScale="1" pageWidth="1169" pageHeight="827" math="0" shadow="0">
      <root>
        <mxCell id="0" />
        <mxCell id="1" parent="0" />
        <mxCell id="C2eb3c94XnzqeboNMu4r-1" value="ESCOLA" style="whiteSpace=wrap;html=1;" vertex="1" parent="1">
          <mxGeometry x="670" y="240" width="120" height="50" as="geometry" />
        </mxCell>
        <mxCell id="C2eb3c94XnzqeboNMu4r-14" style="edgeStyle=orthogonalEdgeStyle;rounded=0;orthogonalLoop=1;jettySize=auto;html=1;endArrow=none;endFill=0;" edge="1" parent="1" source="C2eb3c94XnzqeboNMu4r-3" target="C2eb3c94XnzqeboNMu4r-13">
          <mxGeometry relative="1" as="geometry" />
        </mxCell>
        <mxCell id="C2eb3c94XnzqeboNMu4r-3" value="DEPARTAMENTO" style="whiteSpace=wrap;html=1;" vertex="1" parent="1">
          <mxGeometry x="390" y="240" width="120" height="50" as="geometry" />
        </mxCell>
        <mxCell id="C2eb3c94XnzqeboNMu4r-19" style="edgeStyle=orthogonalEdgeStyle;rounded=0;orthogonalLoop=1;jettySize=auto;html=1;endArrow=none;endFill=0;" edge="1" parent="1" source="C2eb3c94XnzqeboNMu4r-4" target="C2eb3c94XnzqeboNMu4r-18">
          <mxGeometry relative="1" as="geometry" />
        </mxCell>
        <mxCell id="C2eb3c94XnzqeboNMu4r-63" style="edgeStyle=orthogonalEdgeStyle;rounded=0;orthogonalLoop=1;jettySize=auto;html=1;endArrow=none;endFill=0;" edge="1" parent="1" source="C2eb3c94XnzqeboNMu4r-4" target="C2eb3c94XnzqeboNMu4r-62">
          <mxGeometry relative="1" as="geometry" />
        </mxCell>
        <mxCell id="C2eb3c94XnzqeboNMu4r-4" value="DISCIPLINA" style="whiteSpace=wrap;html=1;" vertex="1" parent="1">
          <mxGeometry x="390" y="450" width="120" height="50" as="geometry" />
        </mxCell>
        <mxCell id="C2eb3c94XnzqeboNMu4r-26" style="edgeStyle=orthogonalEdgeStyle;rounded=0;orthogonalLoop=1;jettySize=auto;html=1;endArrow=none;endFill=0;" edge="1" parent="1" source="C2eb3c94XnzqeboNMu4r-5" target="C2eb3c94XnzqeboNMu4r-25">
          <mxGeometry relative="1" as="geometry" />
        </mxCell>
        <mxCell id="C2eb3c94XnzqeboNMu4r-5" value="TURMA" style="whiteSpace=wrap;html=1;" vertex="1" parent="1">
          <mxGeometry x="390" y="640" width="120" height="50" as="geometry" />
        </mxCell>
        <mxCell id="C2eb3c94XnzqeboNMu4r-6" value="PROFESSOR" style="whiteSpace=wrap;html=1;" vertex="1" parent="1">
          <mxGeometry x="100" y="640" width="120" height="50" as="geometry" />
        </mxCell>
        <mxCell id="C2eb3c94XnzqeboNMu4r-7" value="ESTUDANTE" style="whiteSpace=wrap;html=1;" vertex="1" parent="1">
          <mxGeometry x="740" y="450" width="120" height="50" as="geometry" />
        </mxCell>
        <mxCell id="C2eb3c94XnzqeboNMu4r-9" style="edgeStyle=orthogonalEdgeStyle;rounded=0;orthogonalLoop=1;jettySize=auto;html=1;endArrow=none;endFill=0;" edge="1" parent="1" source="C2eb3c94XnzqeboNMu4r-8" target="C2eb3c94XnzqeboNMu4r-1">
          <mxGeometry relative="1" as="geometry" />
        </mxCell>
        <mxCell id="C2eb3c94XnzqeboNMu4r-10" style="edgeStyle=orthogonalEdgeStyle;rounded=0;orthogonalLoop=1;jettySize=auto;html=1;endArrow=none;endFill=0;" edge="1" parent="1" source="C2eb3c94XnzqeboNMu4r-8" target="C2eb3c94XnzqeboNMu4r-3">
          <mxGeometry relative="1" as="geometry" />
        </mxCell>
        <mxCell id="C2eb3c94XnzqeboNMu4r-8" value="contem" style="rhombus;whiteSpace=wrap;html=1;" vertex="1" parent="1">
          <mxGeometry x="550" y="235" width="80" height="60" as="geometry" />
        </mxCell>
        <mxCell id="C2eb3c94XnzqeboNMu4r-11" value="1" style="text;html=1;align=center;verticalAlign=middle;resizable=0;points=[];autosize=1;strokeColor=none;fillColor=none;" vertex="1" parent="1">
          <mxGeometry x="635" y="238" width="30" height="30" as="geometry" />
        </mxCell>
        <mxCell id="C2eb3c94XnzqeboNMu4r-12" value="n" style="text;html=1;align=center;verticalAlign=middle;resizable=0;points=[];autosize=1;strokeColor=none;fillColor=none;" vertex="1" parent="1">
          <mxGeometry x="515" y="238" width="30" height="30" as="geometry" />
        </mxCell>
        <mxCell id="C2eb3c94XnzqeboNMu4r-15" style="edgeStyle=orthogonalEdgeStyle;rounded=0;orthogonalLoop=1;jettySize=auto;html=1;endArrow=none;endFill=0;" edge="1" parent="1" source="C2eb3c94XnzqeboNMu4r-13" target="C2eb3c94XnzqeboNMu4r-4">
          <mxGeometry relative="1" as="geometry" />
        </mxCell>
        <mxCell id="C2eb3c94XnzqeboNMu4r-13" value="reponsavel" style="rhombus;whiteSpace=wrap;html=1;" vertex="1" parent="1">
          <mxGeometry x="410" y="340" width="80" height="60" as="geometry" />
        </mxCell>
        <mxCell id="C2eb3c94XnzqeboNMu4r-16" value="1" style="text;html=1;align=center;verticalAlign=middle;resizable=0;points=[];autosize=1;strokeColor=none;fillColor=none;" vertex="1" parent="1">
          <mxGeometry x="445" y="288" width="30" height="30" as="geometry" />
        </mxCell>
        <mxCell id="C2eb3c94XnzqeboNMu4r-17" value="n" style="text;html=1;align=center;verticalAlign=middle;resizable=0;points=[];autosize=1;strokeColor=none;fillColor=none;" vertex="1" parent="1">
          <mxGeometry x="445" y="418" width="30" height="30" as="geometry" />
        </mxCell>
        <mxCell id="C2eb3c94XnzqeboNMu4r-20" style="edgeStyle=orthogonalEdgeStyle;rounded=0;orthogonalLoop=1;jettySize=auto;html=1;endArrow=none;endFill=0;" edge="1" parent="1" source="C2eb3c94XnzqeboNMu4r-18" target="C2eb3c94XnzqeboNMu4r-5">
          <mxGeometry relative="1" as="geometry" />
        </mxCell>
        <mxCell id="C2eb3c94XnzqeboNMu4r-18" value="possui" style="rhombus;whiteSpace=wrap;html=1;" vertex="1" parent="1">
          <mxGeometry x="410" y="540" width="80" height="60" as="geometry" />
        </mxCell>
        <mxCell id="C2eb3c94XnzqeboNMu4r-22" value="n" style="text;html=1;align=center;verticalAlign=middle;resizable=0;points=[];autosize=1;strokeColor=none;fillColor=none;" vertex="1" parent="1">
          <mxGeometry x="445" y="610" width="30" height="30" as="geometry" />
        </mxCell>
        <mxCell id="C2eb3c94XnzqeboNMu4r-27" style="edgeStyle=orthogonalEdgeStyle;rounded=0;orthogonalLoop=1;jettySize=auto;html=1;endArrow=none;endFill=0;" edge="1" parent="1" source="C2eb3c94XnzqeboNMu4r-25" target="C2eb3c94XnzqeboNMu4r-6">
          <mxGeometry relative="1" as="geometry" />
        </mxCell>
        <mxCell id="C2eb3c94XnzqeboNMu4r-25" value="reponsavel" style="rhombus;whiteSpace=wrap;html=1;" vertex="1" parent="1">
          <mxGeometry x="266" y="635" width="80" height="60" as="geometry" />
        </mxCell>
        <mxCell id="C2eb3c94XnzqeboNMu4r-30" value="(1,4)" style="text;html=1;align=center;verticalAlign=middle;resizable=0;points=[];autosize=1;strokeColor=none;fillColor=none;" vertex="1" parent="1">
          <mxGeometry x="345" y="638" width="50" height="30" as="geometry" />
        </mxCell>
        <mxCell id="C2eb3c94XnzqeboNMu4r-31" value="n" style="text;html=1;align=center;verticalAlign=middle;resizable=0;points=[];autosize=1;strokeColor=none;fillColor=none;" vertex="1" parent="1">
          <mxGeometry x="215" y="638" width="30" height="30" as="geometry" />
        </mxCell>
        <mxCell id="C2eb3c94XnzqeboNMu4r-41" style="edgeStyle=orthogonalEdgeStyle;rounded=0;orthogonalLoop=1;jettySize=auto;html=1;endArrow=none;endFill=0;" edge="1" source="C2eb3c94XnzqeboNMu4r-42" parent="1">
          <mxGeometry relative="1" as="geometry">
            <mxPoint x="501" y="690.01" as="targetPoint" />
          </mxGeometry>
        </mxCell>
        <mxCell id="C2eb3c94XnzqeboNMu4r-42" value="" style="ellipse;whiteSpace=wrap;html=1;" vertex="1" parent="1">
          <mxGeometry x="496" y="710.01" width="10" height="10" as="geometry" />
        </mxCell>
        <mxCell id="C2eb3c94XnzqeboNMu4r-43" value="aula" style="text;html=1;align=center;verticalAlign=middle;resizable=0;points=[];autosize=1;strokeColor=none;fillColor=none;" vertex="1" parent="1">
          <mxGeometry x="475" y="712.01" width="50" height="30" as="geometry" />
        </mxCell>
        <mxCell id="C2eb3c94XnzqeboNMu4r-44" style="edgeStyle=orthogonalEdgeStyle;rounded=0;orthogonalLoop=1;jettySize=auto;html=1;endArrow=none;endFill=0;" edge="1" source="C2eb3c94XnzqeboNMu4r-45" parent="1">
          <mxGeometry relative="1" as="geometry">
            <mxPoint x="451" y="690.01" as="targetPoint" />
          </mxGeometry>
        </mxCell>
        <mxCell id="C2eb3c94XnzqeboNMu4r-45" value="" style="ellipse;whiteSpace=wrap;html=1;" vertex="1" parent="1">
          <mxGeometry x="446" y="710.01" width="10" height="10" as="geometry" />
        </mxCell>
        <mxCell id="C2eb3c94XnzqeboNMu4r-46" value="horário" style="text;html=1;align=center;verticalAlign=middle;resizable=0;points=[];autosize=1;strokeColor=none;fillColor=none;" vertex="1" parent="1">
          <mxGeometry x="420" y="712.01" width="60" height="30" as="geometry" />
        </mxCell>
        <mxCell id="C2eb3c94XnzqeboNMu4r-49" style="edgeStyle=orthogonalEdgeStyle;rounded=0;orthogonalLoop=1;jettySize=auto;html=1;endArrow=none;endFill=0;" edge="1" source="C2eb3c94XnzqeboNMu4r-50" parent="1">
          <mxGeometry relative="1" as="geometry">
            <mxPoint x="406" y="690.01" as="targetPoint" />
          </mxGeometry>
        </mxCell>
        <mxCell id="C2eb3c94XnzqeboNMu4r-50" value="" style="ellipse;whiteSpace=wrap;html=1;" vertex="1" parent="1">
          <mxGeometry x="401" y="710.01" width="10" height="10" as="geometry" />
        </mxCell>
        <mxCell id="C2eb3c94XnzqeboNMu4r-51" value="sala" style="text;html=1;align=center;verticalAlign=middle;resizable=0;points=[];autosize=1;strokeColor=none;fillColor=none;" vertex="1" parent="1">
          <mxGeometry x="380" y="712.01" width="50" height="30" as="geometry" />
        </mxCell>
        <mxCell id="C2eb3c94XnzqeboNMu4r-53" style="edgeStyle=orthogonalEdgeStyle;rounded=0;orthogonalLoop=1;jettySize=auto;html=1;endArrow=none;endFill=0;" edge="1" parent="1" source="C2eb3c94XnzqeboNMu4r-52" target="C2eb3c94XnzqeboNMu4r-6">
          <mxGeometry relative="1" as="geometry">
            <Array as="points">
              <mxPoint x="200" y="610" />
              <mxPoint x="200" y="610" />
            </Array>
          </mxGeometry>
        </mxCell>
        <mxCell id="C2eb3c94XnzqeboNMu4r-54" style="edgeStyle=orthogonalEdgeStyle;rounded=0;orthogonalLoop=1;jettySize=auto;html=1;exitX=0;exitY=0.5;exitDx=0;exitDy=0;endArrow=none;endFill=0;" edge="1" parent="1" source="C2eb3c94XnzqeboNMu4r-52">
          <mxGeometry relative="1" as="geometry">
            <mxPoint x="120" y="598" as="sourcePoint" />
            <mxPoint x="120" y="638" as="targetPoint" />
            <Array as="points">
              <mxPoint x="120" y="590" />
              <mxPoint x="120" y="590" />
            </Array>
          </mxGeometry>
        </mxCell>
        <mxCell id="C2eb3c94XnzqeboNMu4r-52" value="CHEFE" style="rhombus;whiteSpace=wrap;html=1;" vertex="1" parent="1">
          <mxGeometry x="120" y="540" width="80" height="60" as="geometry" />
        </mxCell>
        <mxCell id="C2eb3c94XnzqeboNMu4r-55" value="chefia" style="text;html=1;align=center;verticalAlign=middle;resizable=0;points=[];autosize=1;strokeColor=none;fillColor=none;" vertex="1" parent="1">
          <mxGeometry x="190" y="588" width="60" height="30" as="geometry" />
        </mxCell>
        <mxCell id="C2eb3c94XnzqeboNMu4r-56" value="chefiado" style="text;html=1;align=center;verticalAlign=middle;resizable=0;points=[];autosize=1;strokeColor=none;fillColor=none;" vertex="1" parent="1">
          <mxGeometry x="55" y="588" width="70" height="30" as="geometry" />
        </mxCell>
        <mxCell id="C2eb3c94XnzqeboNMu4r-57" value="1" style="text;html=1;align=center;verticalAlign=middle;resizable=0;points=[];autosize=1;strokeColor=none;fillColor=none;" vertex="1" parent="1">
          <mxGeometry x="88" y="608" width="30" height="30" as="geometry" />
        </mxCell>
        <mxCell id="C2eb3c94XnzqeboNMu4r-58" value="(0,1)" style="text;html=1;align=center;verticalAlign=middle;resizable=0;points=[];autosize=1;strokeColor=none;fillColor=none;" vertex="1" parent="1">
          <mxGeometry x="192" y="608" width="50" height="30" as="geometry" />
        </mxCell>
        <mxCell id="C2eb3c94XnzqeboNMu4r-64" style="edgeStyle=orthogonalEdgeStyle;rounded=0;orthogonalLoop=1;jettySize=auto;html=1;endArrow=none;endFill=0;" edge="1" parent="1" source="C2eb3c94XnzqeboNMu4r-62" target="C2eb3c94XnzqeboNMu4r-7">
          <mxGeometry relative="1" as="geometry" />
        </mxCell>
        <mxCell id="C2eb3c94XnzqeboNMu4r-62" value="inscreve" style="rhombus;whiteSpace=wrap;html=1;" vertex="1" parent="1">
          <mxGeometry x="590" y="445" width="80" height="60" as="geometry" />
        </mxCell>
        <mxCell id="C2eb3c94XnzqeboNMu4r-67" value="(1,6)" style="text;html=1;align=center;verticalAlign=middle;resizable=0;points=[];autosize=1;strokeColor=none;fillColor=none;" vertex="1" parent="1">
          <mxGeometry x="505" y="448" width="50" height="30" as="geometry" />
        </mxCell>
        <mxCell id="C2eb3c94XnzqeboNMu4r-68" value="n" style="text;html=1;align=center;verticalAlign=middle;resizable=0;points=[];autosize=1;strokeColor=none;fillColor=none;" vertex="1" parent="1">
          <mxGeometry x="710" y="450" width="30" height="30" as="geometry" />
        </mxCell>
        <mxCell id="C2eb3c94XnzqeboNMu4r-69" value="" style="triangle;whiteSpace=wrap;html=1;rotation=-90;" vertex="1" parent="1">
          <mxGeometry x="541" y="505" width="44" height="55" as="geometry" />
        </mxCell>
        <mxCell id="C2eb3c94XnzqeboNMu4r-71" value="DISCIPLINA&lt;div&gt;PRINCIPAL&lt;/div&gt;" style="whiteSpace=wrap;html=1;" vertex="1" parent="1">
          <mxGeometry x="570" y="585" width="120" height="50" as="geometry" />
        </mxCell>
        <mxCell id="C2eb3c94XnzqeboNMu4r-74" value="" style="endArrow=none;html=1;rounded=0;entryX=1;entryY=1;entryDx=0;entryDy=0;exitX=0.5;exitY=0;exitDx=0;exitDy=0;" edge="1" parent="1" source="C2eb3c94XnzqeboNMu4r-69" target="C2eb3c94XnzqeboNMu4r-4">
          <mxGeometry width="50" height="50" relative="1" as="geometry">
            <mxPoint x="520" y="550" as="sourcePoint" />
            <mxPoint x="570" y="500" as="targetPoint" />
          </mxGeometry>
        </mxCell>
        <mxCell id="C2eb3c94XnzqeboNMu4r-75" value="" style="endArrow=none;html=1;rounded=0;exitX=0.013;exitY=0.991;exitDx=0;exitDy=0;entryX=0.5;entryY=0;entryDx=0;entryDy=0;exitPerimeter=0;" edge="1" parent="1" source="C2eb3c94XnzqeboNMu4r-69" target="C2eb3c94XnzqeboNMu4r-71">
          <mxGeometry width="50" height="50" relative="1" as="geometry">
            <mxPoint x="520" y="550" as="sourcePoint" />
            <mxPoint x="570" y="500" as="targetPoint" />
          </mxGeometry>
        </mxCell>
        <mxCell id="C2eb3c94XnzqeboNMu4r-81" style="edgeStyle=orthogonalEdgeStyle;rounded=0;orthogonalLoop=1;jettySize=auto;html=1;endArrow=none;endFill=0;" edge="1" parent="1" source="C2eb3c94XnzqeboNMu4r-79" target="C2eb3c94XnzqeboNMu4r-7">
          <mxGeometry relative="1" as="geometry" />
        </mxCell>
        <mxCell id="C2eb3c94XnzqeboNMu4r-82" style="edgeStyle=orthogonalEdgeStyle;rounded=0;orthogonalLoop=1;jettySize=auto;html=1;endArrow=none;endFill=0;" edge="1" parent="1" source="C2eb3c94XnzqeboNMu4r-79" target="C2eb3c94XnzqeboNMu4r-80">
          <mxGeometry relative="1" as="geometry" />
        </mxCell>
        <mxCell id="C2eb3c94XnzqeboNMu4r-79" value="tutora" style="rhombus;whiteSpace=wrap;html=1;" vertex="1" parent="1">
          <mxGeometry x="920" y="445" width="80" height="60" as="geometry" />
        </mxCell>
        <mxCell id="C2eb3c94XnzqeboNMu4r-80" value="TUTOR" style="whiteSpace=wrap;html=1;" vertex="1" parent="1">
          <mxGeometry x="900" y="568" width="120" height="50" as="geometry" />
        </mxCell>
        <mxCell id="C2eb3c94XnzqeboNMu4r-83" value="1" style="text;html=1;align=center;verticalAlign=middle;resizable=0;points=[];autosize=1;strokeColor=none;fillColor=none;" vertex="1" parent="1">
          <mxGeometry x="965" y="538" width="30" height="30" as="geometry" />
        </mxCell>
        <mxCell id="C2eb3c94XnzqeboNMu4r-84" value="n" style="text;html=1;align=center;verticalAlign=middle;resizable=0;points=[];autosize=1;strokeColor=none;fillColor=none;" vertex="1" parent="1">
          <mxGeometry x="855" y="448" width="30" height="30" as="geometry" />
        </mxCell>
      </root>
    </mxGraphModel>
  </diagram>
</mxfile>
